<?xml version="1.0" encoding="UTF-8"?><svg id="Layer_1" xmlns="http://www.w3.org/2000/svg" viewBox="0 0 400 90.9"><defs><style>.cls-1{fill:#fff;}</style></defs><path class="cls-1" d="M10.1,83.1V9c0-4.6-1.7-5.3-10.1-5.8v-.8h58.3l3.7,19.2h-.8c-5.2-13.9-8.9-17.3-21.9-17.3h-22.1v40.2h18.2c10.7,0,12.8-3,14.6-14h.8v30.5h-.8c-1.8-11.6-4-14.5-14.6-14.5h-18.2v36.7c0,3.2,1.7,4.7,5.2,4.7h19.7c11.9,0,16.3-3.2,23.7-18.5h.8l-6.1,20.4H0v-.8c8.4-.5,10.1-1.2,10.1-5.8Z"/><path class="cls-1" d="M65.6,3.2v-.8h27.5v.8c-10.2.1-10.9,1.7-8.9,7.2l24.7,68.7,23.6-65.1c2.6-6.8,1.6-10.2-10.2-10.8v-.8h25.8v.8c-7.2.6-10,3.1-13.1,11.4l-27.8,76.3h-1.2L77.8,13.4c-3.1-8.3-4.3-9.6-12.2-10.2Z"/><path class="cls-1" d="M195.8,81.7l-9.4-26.3h-31.3l-8,22.7c-2.5,6.8-1.1,10.2,9.1,10.8v.8h-24.1v-.8c5.9-.6,9.4-3.1,12.5-11.4l24.5-69.1-1.7-4.6c2.3-.6,5.2-1.9,6.6-3.8h.6c1,4.3,1.6,6.1,4.4,13.9l23.1,64.8c3.1,8.3,4.2,9.6,12,10.2v.8h-27.3v-.8c10.1-.1,10.9-1.7,9-7.2ZM185.7,53.2l-14.9-42.2-15,42.2h29.9Z"/><path class="cls-1" d="M226,83.1V8.9c0-4.4-1.6-5.2-10.1-5.6v-.8h25.2c21.8,0,33.2,7.1,33.2,20.9s-13.3,20.1-22.4,22.2l19.5,29.1c6.7,10.2,11.4,13.9,17.1,14.3v.8c-2,.2-4.8.5-6.7.5-6.4,0-10.3-1.9-16.5-11.9l-17.1-26.9c-2.8-4.3-4.1-4.9-7.1-4.9h-8v36.6c0,4.6,1.7,5.3,11.5,5.8v.8h-28.7v-.8c8.5-.5,10.1-1.2,10.1-5.8ZM240.8,44.8c15.5,0,26.1-7.3,26.1-20s-9.6-20.5-27.3-20.5h-6.5v40.5h7.7Z"/><path class="cls-1" d="M298.7,83.1V9c0-4.6-1.7-5.3-10.6-5.8v-.8h28.2v.8c-8.9.5-10.6,1.2-10.6,5.8v74.1c0,4.6,1.7,5.3,10.6,5.8v.8h-28.2v-.8c8.9-.5,10.6-1.2,10.6-5.8Z"/><path class="cls-1" d="M381.7,81.7l-9.4-26.3h-31.3l-8,22.7c-2.5,6.8-1.1,10.2,9.1,10.8v.8h-24.1v-.8c5.9-.6,9.4-3.1,12.5-11.4l24.5-69.1-1.7-4.6c2.3-.6,5.2-1.9,6.6-3.8h.6c1,4.3,1.6,6.1,4.4,13.9l23.1,64.8c3.1,8.3,4.2,9.6,12,10.2v.8h-27.3v-.8c10.1-.1,10.9-1.7,9-7.2ZM371.6,53.2l-14.9-42.2-15,42.2h29.9Z"/></svg>