<?xml version="1.0" encoding="UTF-8"?><svg id="Layer_1" xmlns="http://www.w3.org/2000/svg" viewBox="0 0 500 500"><defs><style>.cls-1{fill:none;stroke:#fff;stroke-miterlimit:10;}</style></defs><polygon class="cls-1" points="208.5 394.7 250 293.1 291.5 394.7 250 496.2 208.5 394.7"/><polygon class="cls-1" points="120.3 332.4 217.4 281.2 183.9 385.7 86.8 436.8 120.3 332.4"/><polygon class="cls-1" points="92.8 227.9 200 251.2 107.2 309.7 0 286.4 92.8 227.9"/><polygon class="cls-1" points="138.8 130.3 206 217 97.3 202.1 30.2 115.4 138.8 130.3"/><polygon class="cls-1" points="236.9 85 232.6 194.6 158.9 113.4 163.2 3.8 236.9 85"/><polygon class="cls-1" points="341.1 113.4 267.4 194.6 263.1 85 336.8 3.8 341.1 113.4"/><polygon class="cls-1" points="402.7 202.1 294 217 361.2 130.3 469.8 115.4 402.7 202.1"/><polygon class="cls-1" points="392.8 309.7 300 251.2 407.2 227.9 500 286.4 392.8 309.7"/><polygon class="cls-1" points="316.1 385.7 282.6 281.2 379.7 332.4 413.2 436.8 316.1 385.7"/></svg>